<svg width="18" height="18" viewBox="0 0 18 18" fill="none" xmlns="http://www.w3.org/2000/svg">
<path fill-rule="evenodd" clip-rule="evenodd" d="M14.207 13.1644C14.1381 13.166 14.0692 13.1669 14.0003 13.1669C8.93783 13.1669 4.83366 9.06273 4.83366 4.00023C4.83366 3.93107 4.83366 3.8619 4.83616 3.79357C4.10442 4.37943 3.50446 5.11301 3.07543 5.94644C2.6464 6.77987 2.39795 7.69441 2.3463 8.63036C2.29464 9.56631 2.44095 10.5026 2.77566 11.3782C3.11037 12.2538 3.62596 13.0489 4.28879 13.7118C4.95161 14.3746 5.74677 14.8902 6.62235 15.2249C7.49792 15.5596 8.43425 15.7059 9.3702 15.6543C10.3061 15.6026 11.2207 15.3542 12.0541 14.9251C12.8875 14.4961 13.6211 13.8961 14.207 13.1644V13.1644ZM15.222 11.4011C13.8781 11.6234 12.499 11.4755 11.2328 10.9732C9.96654 10.471 8.86102 9.63335 8.03486 8.55029C7.20871 7.46722 6.69312 6.17961 6.54345 4.82567C6.39378 3.47173 6.61568 2.10259 7.18533 0.865234C5.33568 1.27784 3.68194 2.30863 2.49693 3.78754C1.31193 5.26645 0.666449 7.10513 0.666993 9.00023C0.666993 13.6027 4.39783 17.3336 9.00033 17.3336C10.8954 17.334 12.734 16.6884 14.2129 15.5034C15.6918 14.3185 16.7226 12.6648 17.1353 10.8152C16.5353 11.0919 15.8937 11.2911 15.222 11.4011Z" fill="hsl(200, 15%, 8%)"/>
</svg>
